<?xml version="1.0" standalone="no"?>
<!DOCTYPE svg PUBLIC "-//W3C//DTD SVG 20010904//EN"
 "http://www.w3.org/TR/2001/REC-SVG-20010904/DTD/svg10.dtd">
<svg version="1.0" xmlns="http://www.w3.org/2000/svg"
 width="200.000000pt" height="200.000000pt" viewBox="0 0 200.000000 200.000000"
 preserveAspectRatio="xMidYMid meet">
<metadata>
Created by potrace 1.11, written by Peter Selinger 2001-2013
</metadata>
<g transform="translate(0.000000,200.000000) scale(0.100000,-0.100000)"
fill="#000000" stroke="none">
<path d="M866 1533 c-3 -4 -6 -43 -6 -87 l0 -81 -45 1 c-25 1 -49 -4 -53 -10
-5 -6 -24 -54 -42 -106 -18 -52 -34 -96 -35 -98 -2 -2 -15 34 -30 80 -43 129
-48 137 -92 135 -38 -1 -41 2 -28 36 6 15 0 17 -48 17 l-54 0 -40 -122 -39
-123 -38 115 c-21 63 -44 120 -51 125 -17 14 -107 7 -98 -8 3 -5 36 -89 74
-186 71 -185 77 -194 135 -183 20 4 33 32 126 282 8 22 17 8 72 -129 l63 -154
-22 -56 c-13 -31 -21 -59 -18 -63 2 -5 23 -8 46 -8 l42 0 87 218 87 217 0
-152 c1 -151 1 -153 24 -154 35 -2 51 2 66 16 11 11 19 10 46 -6 66 -39 176
13 192 92 6 31 23 40 23 12 0 -28 51 -85 94 -103 63 -27 140 -16 178 26 15 18
15 21 -3 43 -19 23 -23 24 -54 12 -19 -6 -43 -14 -54 -16 -20 -4 -71 29 -71
46 0 5 47 9 105 9 119 0 128 6 113 72 -11 51 -34 81 -79 107 -87 49 -208 0
-226 -91 -7 -35 -18 -44 -20 -17 -3 32 -36 82 -69 104 -43 29 -104 31 -137 5
l-27 -21 -1 48 c0 26 -1 66 -1 88 1 63 -4 70 -47 72 -22 1 -42 -1 -45 -4z
m219 -273 c18 -15 25 -58 13 -90 -21 -62 -105 -64 -137 -3 -18 36 -13 63 19
93 26 25 35 27 61 20 17 -5 37 -14 44 -20z m326 10 c18 -14 20 -20 9 -21 -21
-2 -70 -2 -100 0 l-25 2 24 19 c13 11 33 20 46 20 13 0 33 -9 46 -20z"/>
<path d="M1540 1356 c-12 -12 -13 -46 -2 -62 4 -6 35 -10 70 -10 34 1 62 -2
62 -5 0 -3 -33 -45 -74 -92 -62 -73 -74 -91 -70 -114 3 -15 7 -30 10 -32 10
-11 247 -3 254 9 7 12 5 58 -3 67 -3 3 -35 5 -71 4 l-66 0 69 86 c114 142 108
161 -53 160 -66 0 -120 -5 -126 -11z"/>
<path d="M992 918 l3 -73 95 2 95 1 -45 -14 c-109 -34 -130 -45 -121 -62 26
-46 37 -55 58 -44 32 18 233 67 233 58 0 -2 -29 -18 -65 -35 -36 -18 -65 -38
-65 -44 0 -7 8 -22 18 -34 15 -19 22 -21 62 -13 25 5 70 9 100 9 l55 0 -42
-19 c-48 -22 -47 -20 -31 -55 9 -20 17 -25 32 -20 96 31 127 36 198 32 l77 -4
11 30 c5 17 9 31 8 32 -17 15 -95 46 -140 56 -32 8 -58 17 -58 21 0 15 240 15
293 0 32 -9 33 -8 44 25 10 34 10 35 -26 49 -77 31 -79 33 -36 33 l41 1 0 70
0 70 -399 0 -398 0 3 -72z"/>
<path d="M380 575 c0 -28 4 -35 20 -35 12 0 20 7 20 18 0 10 -9 25 -20 35 -19
16 -20 16 -20 -18z m26 -22 c-10 -10 -19 5 -10 18 6 11 8 11 12 0 2 -7 1 -15
-2 -18z"/>
<path d="M496 589 c-20 -19 -16 -49 8 -49 13 0 29 57 17 64 -3 2 -14 -5 -25
-15z m10 -36 c-10 -10 -19 5 -10 18 6 11 8 11 12 0 2 -7 1 -15 -2 -18z"/>
<path d="M826 592 c-6 -10 4 -52 13 -52 8 0 7 47 -1 56 -3 3 -8 1 -12 -4z"/>
<path d="M287 583 c-4 -3 -7 -16 -6 -27 0 -19 1 -19 11 4 l11 25 7 -25 c5 -14
8 -19 9 -11 1 11 5 11 19 -2 20 -19 32 -13 32 14 0 24 -18 33 -35 19 -9 -7
-15 -8 -20 0 -7 12 -19 13 -28 3z m73 -18 c0 -8 -4 -15 -10 -15 -5 0 -10 7
-10 15 0 8 5 15 10 15 6 0 10 -7 10 -15z"/>
<path d="M437 583 c-12 -11 -7 -41 7 -46 19 -7 26 1 26 30 0 22 -19 31 -33 16z
m19 -30 c-10 -10 -19 5 -10 18 6 11 8 11 12 0 2 -7 1 -15 -2 -18z"/>
<path d="M560 570 c0 -12 -5 -18 -10 -15 -6 4 -8 11 -5 16 4 5 1 9 -4 9 -17 0
-13 -30 4 -36 8 -4 15 -10 15 -16 0 -5 -4 -6 -10 -3 -5 3 -10 1 -10 -4 0 -12
29 -15 31 -3 5 29 4 64 -3 68 -4 3 -8 -4 -8 -16z"/>
<path d="M606 574 c-8 -21 1 -34 22 -33 11 0 12 3 5 6 -7 2 -13 11 -13 19 0 9
5 12 10 9 6 -3 10 -1 10 4 0 17 -27 13 -34 -5z"/>
<path d="M668 583 c10 -4 8 -8 -5 -18 -10 -8 -14 -17 -9 -22 5 -4 11 -2 14 6
4 11 6 11 13 0 6 -10 9 -6 9 14 0 19 -5 27 -17 26 -12 0 -13 -2 -5 -6z"/>
<path d="M709 583 c0 -5 -2 -16 -4 -25 -2 -10 1 -18 5 -18 5 0 11 10 13 23 l4
22 2 -22 c0 -13 5 -23 10 -23 5 0 8 8 6 18 -2 9 -4 20 -4 25 -1 4 -8 7 -16 7
-8 0 -15 -3 -16 -7z"/>
<path d="M775 580 c-3 -6 2 -13 11 -17 16 -6 16 -7 -2 -14 -18 -7 -17 -8 3 -8
27 -1 40 17 18 25 -13 6 -14 8 -3 15 10 7 9 9 -4 9 -9 0 -20 -5 -23 -10z"/>
<path d="M860 566 c0 -20 5 -26 21 -26 15 0 20 5 17 22 -5 34 -38 37 -38 4z
m30 -7 c0 -5 -4 -9 -10 -9 -5 0 -10 7 -10 16 0 8 5 12 10 9 6 -3 10 -10 10
-16z"/>
<path d="M911 548 c0 -24 3 -36 6 -28 4 8 13 20 21 26 18 13 9 44 -13 44 -11
0 -15 -11 -14 -42z m24 23 c3 -5 1 -12 -5 -16 -5 -3 -10 1 -10 9 0 18 6 21 15
7z"/>
<path d="M980 565 c0 -14 3 -25 8 -25 4 0 7 11 7 25 0 14 -3 25 -7 25 -5 0 -8
-11 -8 -25z"/>
<path d="M1017 584 c-16 -17 -7 -44 16 -43 21 0 21 1 2 9 -18 8 -18 9 -2 9 10
1 17 6 15 13 -5 14 -22 21 -31 12z"/>
<path d="M1067 583 c-2 -5 -3 -21 -3 -38 1 -28 4 -30 41 -31 40 -2 82 25 67
42 -4 5 1 2 11 -6 17 -13 19 -12 15 10 -3 28 -30 34 -34 8 -3 -20 -34 -55 -34
-39 0 6 5 20 12 31 14 22 6 35 -18 26 -12 -4 -14 -13 -10 -32 5 -19 3 -25 -6
-21 -7 2 -12 16 -10 31 2 18 -2 26 -12 26 -8 0 -17 -3 -19 -7z m23 -13 c0 -5
-5 -10 -11 -10 -5 0 -7 5 -4 10 3 6 8 10 11 10 2 0 4 -4 4 -10z m50 0 c0 -5
-5 -10 -11 -10 -5 0 -7 5 -4 10 3 6 8 10 11 10 2 0 4 -4 4 -10z"/>
<path d="M1214 576 c-10 -25 3 -47 22 -39 16 6 16 7 -2 14 -18 7 -18 8 -1 8
10 1 17 6 15 13 -7 19 -27 21 -34 4z"/>
</g>
</svg>
